<svg xmlns="http://www.w3.org/2000/svg" xmlns:xlink="http://www.w3.org/1999/xlink" viewBox="0 0 117.57304 40.00003">
  <defs>
    <linearGradient id="Gradient_logo" data-name="Gradient logo" x1="-6.79328" y1="42.64344" x2="19.2124" y2="16.63777" gradientTransform="translate(11.17678 -10.95942) rotate(0.08428)" gradientUnits="userSpaceOnUse">
      <stop offset="0" stop-color="#0aa1e2"/>
      <stop offset="1" stop-color="#06e89f"/>
    </linearGradient>
    <linearGradient id="Gradient_logo-2" x1="-2.12907" y1="51.5773" x2="14.55211" y2="34.89612" xlink:href="#Gradient_logo"/>
  </defs>
  <title>instilla-logo-color</title>
  <g style="isolation: isolate">
    <g id="Livello_2" data-name="Livello 2">
      <g id="menu">
        <g>
          <path d="M110.13072,27.06379a3.26153,3.26153,0,0,1-.93976-.49514,2.76261,2.76261,0,0,1-.86681-2.14088,2.15992,2.15992,0,0,1,.44873-1.363,3.83246,3.83246,0,0,1,1.43577-1.03242,10.10247,10.10247,0,0,1,2.46981-.70173,27.79545,27.79545,0,0,1,3.55078-.30044l-.00553,3.76195c-.35321.35216-.68282.65733-1.03595.96247a6.02276,6.02276,0,0,1-1.12973.77424,5.716,5.716,0,0,1-1.29393.51536A6.37683,6.37683,0,0,1,111.212,27.23,4.00413,4.00413,0,0,1,110.13072,27.06379Zm7.42844.95142.01387-9.42837a7.65459,7.65459,0,0,0-.279-2.16353,4.81023,4.81023,0,0,0-.86746-1.69416,4.07359,4.07359,0,0,0-1.43268-1.06015,5.48178,5.48178,0,0,0-2.045-.35569,6.79364,6.79364,0,0,0-2.82229.56014,8.44888,8.44888,0,0,0-2.37725,1.71289l.2345.42356a.71583.71583,0,0,0,.18782.18838.42235.42235,0,0,0,.25852.07092.9202.9202,0,0,0,.54121-.28136,7.29172,7.29172,0,0,1,.82386-.63361,5.92762,5.92762,0,0,1,1.22355-.633,4.58711,4.58711,0,0,1,1.78738-.303,3.11853,3.11853,0,0,1,2.56123,1.08533,4.8028,4.8028,0,0,1,.86542,3.08137l-.00225,1.52829a23.2527,23.2527,0,0,0-4.20925.39351,11.77013,11.77013,0,0,0-2.86984.91276,4.34963,4.34963,0,0,0-1.62434,1.36132,3.02852,3.02852,0,0,0-.54331,1.71558,4.0996,4.0996,0,0,0,.32669,1.69337,3.28292,3.28292,0,0,0,2.11343,1.81354,4.24523,4.24523,0,0,0,1.43392.21372,7.02334,7.02334,0,0,0,1.62259-.1622,5.36161,5.36161,0,0,0,1.3879-.4682,7.78338,7.78338,0,0,0,1.22381-.79761,15.44423,15.44423,0,0,0,1.17712-1.03281l.20892,1.83426a.497.497,0,0,0,.54016.424Zm-15.424-.02269,1.3872.002.0311-21.13741-1.38721-.002Zm-6.11316-.009,1.38721.002.03109-21.1374-1.38721-.002ZM81.51215,13.94891l.0081-5.50183-.65834-.001a.30188.30188,0,0,0-.23526.0937.73561.73561,0,0,0-.11791.235l-.36029,5.17215-2.44549.161-.0008.54078a.27263.27263,0,0,0,.09369.23526.32116.32116,0,0,0,.25851.09443l2.06906.003-.01452,9.8751a3.44482,3.44482,0,0,0,.81922,2.517,3.10266,3.10266,0,0,0,2.2795.80276,4.54066,4.54066,0,0,0,1.76393-.35009,4.46121,4.46121,0,0,0,1.41218-.98543l-.3753-.61187c-.0939-.09418-.16438-.14131-.23491-.14142a.51759.51759,0,0,0-.28236.14066,2.4463,2.4463,0,0,1-.4472.32851,3.44228,3.44228,0,0,1-.65886.35172,2.45575,2.45575,0,0,1-.89368.13976,2.68544,2.68544,0,0,1-.77573-.1187,1.51148,1.51148,0,0,1-.6342-.42415,1.77089,1.77089,0,0,1-.42218-.706,3.13489,3.13489,0,0,1-.1631-1.01127l.01442-9.80456,8.37033.01232-.01909,12.97869,1.38721.002.02061-14.01323ZM75.46827,14.81a5.77562,5.77562,0,0,0-1.85574-1.17834,7.24992,7.24992,0,0,0-2.35066-.37966,5.69921,5.69921,0,0,0-1.97551.32627,4.77453,4.77453,0,0,0-1.52953.84419,4.05616,4.05616,0,0,0-.94232,1.24476,3.75224,3.75224,0,0,0-.33134,1.48078,2.90911,2.90911,0,0,0,.35047,1.50529,3.20416,3.20416,0,0,0,.91544,1.03588,4.70256,4.70256,0,0,0,1.26866.68373c.49347.18882.96347.3541,1.4805.51944.49352.16532.98706.30712,1.48057.47242a5.20379,5.20379,0,0,1,1.26883.56616,3.04388,3.04388,0,0,1,.9158.80077,2.033,2.033,0,0,1,.35089,1.22314,3.0626,3.0626,0,0,1-.23692,1.22229,2.89329,2.89329,0,0,1-.70689,1.0335,3.3687,3.3687,0,0,1-1.17661.68012,5.45,5.45,0,0,1-3.24472.01874,7.02167,7.02167,0,0,1-1.10433-.49538,5.74658,5.74658,0,0,1-.70464-.4948.78974.78974,0,0,0-.4699-.23581.465.465,0,0,0-.25871.04665.67055.67055,0,0,0-.16486.18785l-.30639.49331a7.47827,7.47827,0,0,0,1.97316,1.27255,6.31446,6.31446,0,0,0,2.60915.47409,6.06688,6.06688,0,0,0,2.16361-.326,4.68358,4.68358,0,0,0,1.60024-.96165A4.024,4.024,0,0,0,75.4761,25.461a4.76934,4.76934,0,0,0,.33174-1.73942,2.87842,2.87842,0,0,0-.3505-1.48178,3.50529,3.50529,0,0,0-.91546-1.03588,5.5205,5.5205,0,0,0-1.26862-.70723c-.49348-.18883-.987-.35413-1.48051-.51945s-.98706-.30711-1.45706-.47239a5.9405,5.9405,0,0,1-1.29237-.54267,2.98015,2.98015,0,0,1-.91582-.77726A1.74031,1.74031,0,0,1,67.8,17.05587a2.393,2.393,0,0,1,.23668-1.0577,2.74267,2.74267,0,0,1,.70664-.86892,3.55143,3.55143,0,0,1,1.106-.60969,4.48943,4.48943,0,0,1,1.43455-.2095,5.59363,5.59363,0,0,1,1.481.16677,5.95551,5.95551,0,0,1,1.0104.4247,4.78321,4.78321,0,0,1,.65775.40068.80924.80924,0,0,0,.42294.18872.37977.37977,0,0,0,.32949-.21112ZM52.94781,27.92016l.016-10.8626a7.19935,7.19935,0,0,1,2.16606-1.99535,5.24685,5.24685,0,0,1,2.65794-.725,3.39522,3.39522,0,0,1,2.81976,1.15624,5.02387,5.02387,0,0,1,.91227,3.199l-.0136,9.24027,1.41073.00208.01359-9.24027a8.49555,8.49555,0,0,0-.3023-2.28113,4.8894,4.8894,0,0,0-.91447-1.69422A3.8987,3.8987,0,0,0,60.23412,13.612a5.85857,5.85857,0,0,0-2.11553-.37931,5.789,5.789,0,0,0-2.91661.7481,8.16592,8.16592,0,0,0-2.30717,2.01866L52.757,13.81257a.39248.39248,0,0,0-.4227-.35331l-.77589-.00114-.02127,14.46Zm-7.40632-.01089,1.3637.002.02127-14.46-1.3637-.002Z" fill="#040321" fill-rule="evenodd"/>
          <path d="M34.6803,10.941a2.39795,2.39795,0,0,0-1.07875-1.90607L18.4726.26614A2.44064,2.44064,0,0,0,16.26246.26289L1.10778,8.98713A2.46162,2.46162,0,0,0,.02342,10.89L0,26.80774a1.25951,1.25951,0,0,0,1.24427,1.27149l32.16461.04731a1.25951,1.25951,0,0,0,1.248-1.26782Z" fill-rule="evenodd" fill="url(#Gradient_logo)"/>
          <path d="M16.15729,39.78672a3.24207,3.24207,0,0,0,2.30419.00339l15.05829-7.12555c.63527-.30473.56508-.54-.11677-.541L1.23839,32.07629c-.68185-.001-.72921.234-.11835.54061Z" fill-rule="evenodd" fill="url(#Gradient_logo-2)"/>
          <path d="M34.68034,10.91749a1.08113,1.08113,0,0,0-1.26806-1.08342L18.57321,11.78726a4.63594,4.63594,0,0,0-2.16464,1.03135L.89287,27.20876c-.49445.46952-.35393.84591.35144.84695L33.3854,28.103a1.2595,1.2595,0,0,0,1.27149-1.24427Z" fill="#082330" fill-rule="evenodd" opacity="0.2" style="mix-blend-mode: multiply"/>
          <path d="M18.01552,39.27219c-.40058.58721-.18928.79913.446.51792l15.05829-7.12555c.63527-.30473.58849-.46938-.117-.37637L22.79654,33.80088a3.18658,3.18658,0,0,0-1.95334,1.24327Z" fill="#082330" fill-rule="evenodd" opacity="0.2" style="mix-blend-mode: multiply"/>
          <text/>        </g>
      </g>
    </g>
  </g>
</svg>
